<?xml version="1.0" encoding="UTF-8"?>
<svg id="a" xmlns="http://www.w3.org/2000/svg" version="1.1" viewBox="0 0 15.15 2.73">
  <!-- Generator: Adobe Illustrator 29.6.0, SVG Export Plug-In . SVG Version: 2.1.1 Build 207)  -->
  <defs>
    <style>
      .st0 {
        fill: #fff;
      }
    </style>
  </defs>
  <g>
    <path class="st0" d="M4.55,1.18h.97l-.04.07s-.06.05-.09.05h-.98c-.06,0-.08-.04-.05-.09l.14-.24c.05-.08.17-.15.27-.15h.51l.31-.54s.06-.05.09-.05h.12l-.49.84s-.06.05-.09.05h-.12l.1-.18h-.4c-.06,0-.13.04-.16.09l-.08.14Z"/>
    <path class="st0" d="M8.2.83l-.04.07s-.06.05-.09.05h-.14c-.06,0-.13.04-.16.09l-.12.21s-.06.05-.09.05h-.12l.19-.33c.05-.08.17-.15.27-.15h.3Z"/>
    <path class="st0" d="M8.6,1.15c-.05.08-.17.15-.27.15h-.3l.04-.07s.06-.05.09-.05h.14c.06,0,.13-.04.16-.09l.06-.11c.05-.08.17-.15.27-.15h.25l-.04.07s-.06.05-.09.05h-.09c-.06,0-.13.04-.16.09l-.06.11Z"/>
    <path class="st0" d="M7.13,1.26l.25-.43h-.12s-.07.02-.09.05l-.25.43h.12s.07-.02.09-.05Z"/>
    <path class="st0" d="M4.17,1.18l-.04.07s-.06.05-.09.05h-.9c-.06,0-.08-.04-.05-.09l.14-.24c.05-.08.17-.15.27-.15h.69l-.14.25s-.06.05-.09.05h-.12l.1-.18h-.4c-.06,0-.13.04-.16.09l-.08.14h.89Z"/>
    <path class="st0" d="M6.79,1.18l-.04.07s-.06.05-.09.05h-.9c-.06,0-.08-.04-.05-.09l.14-.24c.05-.08.17-.15.27-.15h.69l-.14.25s-.06.05-.09.05h-.12l.1-.18h-.4c-.06,0-.13.04-.16.09l-.08.14h.89Z"/>
    <path class="st0" d="M4.29.13l.05-.08h-1.05c-.2,0-.43.14-.53.31l-.32.56c-.06.11-.22.2-.35.2h-.79c-.07,0-.14.04-.18.1l-.05.08h1.25c.2,0,.43-.14.53-.31l.33-.56c.07-.11.22-.2.35-.2h.59c.07,0,.14-.04.18-.1Z"/>
  </g>
  <g>
    <path class="st0" d="M10.84,1.6l-.19.33c-.05.08-.17.15-.27.15h-.51l-.31.54s-.06.05-.09.05h-.12l.49-.84s.06-.05.09-.05h.12l-.1.18h.4c.06,0,.13-.04.16-.09l.08-.14h-.89l.04-.07s.06-.05.09-.05h1.01Z"/>
    <path class="st0" d="M11.77,1.73h-.4c-.06,0-.13.04-.16.09l-.08.14h.68l-.04.07s-.06.05-.09.05h-.7c-.06,0-.08-.04-.05-.09l.14-.24c.05-.08.17-.15.27-.15h.69l-.11.19c-.04.06-.12.11-.2.11h-.3l.04-.06s.06-.05.09-.05h.13s.07-.02.09-.05h0Z"/>
    <path class="st0" d="M13.19,1.96l-.04.07s-.06.05-.09.05h-.9c-.06,0-.08-.04-.05-.09l.14-.24c.05-.08.17-.15.27-.15h.69l-.14.25s-.05.05-.08.05h-.12l.1-.18h-.4c-.06,0-.13.04-.16.09l-.08.14h.89Z"/>
    <path class="st0" d="M14.08,1.6l-.04.07s-.06.05-.09.05h-.14c-.06,0-.13.04-.16.09l-.12.21s-.06.05-.09.05h-.12l.19-.33c.05-.08.17-.15.27-.15h.3Z"/>
    <path class="st0" d="M10.81.91l.05-.08h-1.05c-.2,0-.43.14-.53.31l-.32.56c-.06.11-.22.2-.35.2h-.79c-.07,0-.14.04-.18.1l-.05.08h1.25c.19,0,.43-.14.53-.31l.33-.56c.07-.11.22-.2.35-.2h.59c.07,0,.14-.04.18-.1Z"/>
  </g>
</svg>